<svg aria-hidden="true" style="position: absolute; width: 0; height: 0; overflow: hidden;" version="1.1" xmlns="http://www.w3.org/2000/svg" xmlns:xlink="http://www.w3.org/1999/xlink">
<defs>
<symbol id="arrow" viewBox="0 0 32 32">
<path fill="#fff" style="fill: var(--color1, #fff)" d="M21.414 28.728c0.362-0.362 0.586-0.862 0.586-1.414s-0.224-1.052-0.586-1.414l-9.901-9.899 9.901-9.901c0.347-0.359 0.561-0.849 0.561-1.389 0-1.105-0.895-2-2-2-0.54 0-1.030 0.214-1.39 0.562l0.001-0.001-11.312 11.314c-0.362 0.362-0.586 0.862-0.586 1.414s0.224 1.052 0.586 1.414l11.312 11.312c0.362 0.362 0.862 0.586 1.414 0.586s1.052-0.224 1.414-0.586v0z"></path>
</symbol>
<symbol id="bar" viewBox="0 0 32 32">
<path fill="#d5621d" style="fill: var(--color2, #d5621d)" d="M0.147 0.155c-0.137 0.145-0.147 0.222-0.147 1.129 0 0.931 0.007 0.98 0.156 1.119 0.156 0.146 0.161 0.146 3.443 0.146h3.287v2.214h-0.306c-0.173 0-0.421 0.058-0.57 0.134-0.473 0.24-0.581 0.461-0.914 1.869-0.166 0.705-0.303 1.357-0.303 1.449s0.067 0.228 0.148 0.303c0.142 0.132 0.226 0.137 2.4 0.137h2.252l0.166-0.165c0.091-0.090 0.166-0.207 0.166-0.26s-0.137-0.68-0.306-1.395c-0.205-0.872-0.359-1.38-0.468-1.543-0.197-0.297-0.652-0.529-1.036-0.529h-0.283v-2.214h7.696v2.214h-0.272c-0.525 0-0.974 0.278-1.169 0.725-0.114 0.26-0.651 2.527-0.651 2.746 0 0.070 0.070 0.194 0.156 0.274 0.154 0.144 0.188 0.146 2.418 0.146h2.262l0.147-0.155c0.081-0.085 0.147-0.209 0.147-0.274 0-0.213-0.54-2.483-0.651-2.737-0.196-0.447-0.644-0.725-1.169-0.725h-0.272v-2.214h7.696v2.214h-0.283c-0.384 0-0.839 0.232-1.036 0.529-0.109 0.164-0.263 0.671-0.468 1.543-0.168 0.715-0.306 1.343-0.306 1.395s0.075 0.17 0.166 0.26l0.166 0.165h2.252c2.173 0 2.257-0.005 2.4-0.137 0.081-0.075 0.148-0.211 0.148-0.302s-0.137-0.744-0.305-1.451c-0.334-1.411-0.441-1.628-0.911-1.867-0.149-0.075-0.397-0.134-0.57-0.134h-0.306v-2.214h6.592l0.147-0.155c0.137-0.145 0.147-0.222 0.147-1.129 0-0.931-0.007-0.98-0.156-1.12l-0.156-0.146h-31.394l-0.147 0.155zM31.055 1.275v0.336h-30.11v-0.671h30.11v0.335zM8.358 5.787c0.054 0.064 0.486 1.753 0.486 1.899 0 0.016-0.668 0.028-1.485 0.028-0.875 0-1.485-0.026-1.485-0.062 0-0.186 0.406-1.771 0.475-1.853 0.109-0.132 1.9-0.143 2.009-0.013zM17.003 5.792c0.059 0.070 0.483 1.725 0.483 1.884 0 0.021-0.668 0.039-1.485 0.039s-1.485-0.018-1.485-0.039c0-0.159 0.423-1.814 0.482-1.884 0.106-0.127 1.899-0.127 2.005 0zM25.651 5.8c0.069 0.082 0.475 1.667 0.475 1.852 0 0.037-0.611 0.063-1.485 0.063-0.817 0-1.485-0.013-1.485-0.028 0-0.146 0.432-1.835 0.486-1.9 0.109-0.13 1.9-0.119 2.009 0.013zM12.407 15.28c-0.080 0.091-0.112 0.354-0.139 1.157-0.028 0.863-0.060 1.108-0.188 1.442s-0.16 0.586-0.193 1.476l-0.039 1.074-0.636 0.019c-0.35 0.011-0.671 0.006-0.713-0.010-0.057-0.021-0.054-0.277 0.010-0.992 0.132-1.467 0.201-1.399-1.423-1.399-1.56 0-1.497-0.044-1.431 0.989 0.025 0.397 0.064 0.88 0.087 1.074l0.041 0.352h-0.437c-0.24 0-0.45-0.013-0.467-0.029s0.007-0.432 0.052-0.922c0.109-1.195 0.11-1.176-0.044-1.329-0.125-0.124-0.225-0.134-1.373-0.134-1.554 0-1.502-0.033-1.439 0.922 0.023 0.36 0.063 0.843 0.087 1.074l0.044 0.42h-1.967c-1.877 0-1.974 0.006-2.102 0.134-0.123 0.122-0.135 0.224-0.135 1.1 0 1.122 0.044 1.231 0.524 1.295l0.286 0.038v8.479l0.156 0.146 0.156 0.146h29.773l0.294-0.311v-8.46l0.286-0.038c0.48-0.064 0.524-0.173 0.524-1.295 0-0.876-0.012-0.978-0.135-1.1-0.133-0.133-0.225-0.134-8.361-0.134h-8.226l-0.039-0.956c-0.031-0.729-0.075-1.059-0.188-1.392-0.119-0.35-0.156-0.656-0.19-1.553-0.055-1.483 0.025-1.399-1.324-1.399-0.892 0-1.039 0.015-1.13 0.117zM13.907 16.873c0 0.66 0.026 0.845 0.18 1.287 0.156 0.451 0.18 0.628 0.186 1.393l0.006 0.876-1.451 0.038v-0.929c0-0.819 0.020-0.987 0.168-1.409 0.123-0.349 0.181-0.689 0.213-1.253l0.044-0.774h0.654v0.771zM5.974 19.607c-0.064 0.893-0.049 0.866-0.46 0.842l-0.348-0.020-0.044-0.335c-0.024-0.17-0.050-0.418-0.070-0.668l-0.003-0.054-0.028-0.386h1l-0.044 0.621zM9.556 19.54c-0.076 0.955-0.060 0.923-0.474 0.923h-0.359l-0.044-0.554c-0.025-0.304-0.060-0.636-0.080-0.738l-0.036-0.185h1.037l-0.044 0.554zM31.055 21.738v0.335h-30.11v-0.671h30.11v0.336zM30.245 26.937v3.925h-4.221l-0.684-4.1 0.242-0.101c0.312-0.129 0.605-0.405 0.723-0.678 0.057-0.133 0.093-0.462 0.093-0.855 0-0.987 0.253-0.908-2.898-0.908h-2.628l-0.14 0.177c-0.114 0.144-0.14 0.272-0.139 0.688 0 0.281 0.032 0.626 0.072 0.767 0.088 0.314 0.536 0.774 0.807 0.828 0.11 0.022 0.201 0.068 0.201 0.103 0 0.070-0.588 3.605-0.647 3.895l-0.038 0.185h-1.243c-0.684 0-1.244-0.015-1.244-0.032 0-0.035-0.583-3.578-0.637-3.876-0.030-0.161-0.004-0.197 0.217-0.288 0.598-0.249 0.822-0.667 0.825-1.536 0.001-0.524-0.017-0.619-0.146-0.755l-0.146-0.155h-2.6c-3.136 0-2.913-0.069-2.911 0.901 0.002 0.881 0.224 1.296 0.827 1.546 0.207 0.086 0.247 0.132 0.219 0.255-0.033 0.147-0.644 3.858-0.644 3.913 0 0.015-0.559 0.028-1.243 0.028h-1.244l-0.038-0.185c-0.060-0.29-0.647-3.825-0.647-3.895 0-0.035 0.090-0.081 0.2-0.103 0.272-0.054 0.72-0.513 0.807-0.828 0.039-0.141 0.072-0.486 0.072-0.767 0-0.416-0.026-0.544-0.139-0.688l-0.14-0.177h-2.628c-3.151 0-2.898-0.079-2.898 0.908 0 0.394 0.036 0.723 0.092 0.855 0.118 0.273 0.412 0.549 0.723 0.678l0.242 0.101-0.324 1.932c-0.178 1.063-0.325 1.985-0.326 2.050-0.002 0.109-0.149 0.117-2.129 0.117h-2.127v-7.849h28.489v3.925zM10.464 25.345c0 0.103-0.047 0.253-0.105 0.336-0.104 0.148-0.123 0.149-1.852 0.149-1.943 0-1.959-0.004-1.959-0.441v-0.23h3.916v0.186zM17.958 25.372c0 0.117-0.050 0.268-0.112 0.335-0.103 0.113-0.251 0.123-1.834 0.123-1.925 0-1.97-0.010-1.97-0.447v-0.224h3.916v0.213zM25.451 25.389c0 0.437-0.016 0.441-1.959 0.441-1.728 0-1.748-0.001-1.852-0.149-0.061-0.095-0.099-0.21-0.105-0.334l-0-0.001v-0.186h3.915v0.23zM28.771 25.717c-0.136 0.144-0.147 0.223-0.147 1.092 0 1.105 0.050 1.235 0.473 1.235s0.473-0.129 0.473-1.244c0-0.902-0.007-0.953-0.156-1.092-0.203-0.189-0.458-0.186-0.642 0.009zM9.681 28.698c0.176 1.061 0.335 1.982 0.353 2.046 0.031 0.11-0.073 0.117-1.524 0.117-1.058 0-1.557-0.023-1.557-0.071 0-0.085 0.592-3.651 0.643-3.871 0.034-0.147 0.058-0.151 0.9-0.151h0.866l0.319 1.929zM16.878 26.807c0 0.053 0.601 3.644 0.647 3.87l0.038 0.185h-3.127l0.038-0.185c0.047-0.226 0.648-3.817 0.648-3.87 0-0.021 0.395-0.038 0.877-0.038s0.878 0.017 0.878 0.038zM24.404 26.92c0.041 0.173 0.641 3.815 0.642 3.892 0 0.028-0.7 0.050-1.557 0.050-1.451 0-1.555-0.008-1.524-0.117 0.018-0.064 0.177-0.985 0.353-2.046l0.319-1.929h0.866c0.842 0 0.866 0.004 0.901 0.151z"></path>
</symbol>
<symbol id="more" viewBox="0 0 32 32">
<path fill="#fff" style="fill: var(--color1, #fff)" d="M21.766 19.866l7.173 7.173c0.254 0.245 0.412 0.588 0.412 0.969 0 0.743-0.602 1.345-1.345 1.345-0.381 0-0.724-0.158-0.969-0.412l-7.174-7.174c-1.785 1.393-4.060 2.234-6.532 2.234-5.891 0-10.667-4.776-10.667-10.667s4.776-10.667 10.667-10.667c5.891 0 10.667 4.776 10.667 10.667 0 2.472-0.841 4.747-2.252 6.555l0.018-0.024h0.001zM13.333 21.333c4.418 0 8-3.582 8-8s-3.582-8-8-8v0c-4.418 0-8 3.582-8 8s3.582 8 8 8v0z"></path>
<path fill="#d5621d" style="fill: var(--color2, #d5621d)" d="M14.667 14.667h2.667c0.736 0 1.333-0.597 1.333-1.333s-0.597-1.333-1.333-1.333v0h-2.667v-2.667c0-0.736-0.597-1.333-1.333-1.333s-1.333 0.597-1.333 1.333v0 2.667h-2.667c-0.736 0-1.333 0.597-1.333 1.333s0.597 1.333 1.333 1.333v0h2.667v2.667c0 0.736 0.597 1.333 1.333 1.333s1.333-0.597 1.333-1.333v0-2.667z"></path>
</symbol>
<symbol id="table" viewBox="0 0 32 32">
<path fill="#d5621d" style="fill: var(--color2, #d5621d)" d="M6.156 4.367c-0.514 0.279-0.762 0.737-0.697 1.287l0.038 0.328-0.374 0.144c-0.484 0.187-1.049 0.604-1.374 1.015-0.444 0.56-0.654 1.056-0.756 1.786l-0.064 0.455 0.413 0.885c0.227 0.486 0.471 0.933 0.542 0.993 0.097 0.082 0.241 0.109 0.584 0.109h0.456l-0.316 0.716-0.316 0.717h-2.020c-1.996 0-2.020 0.001-2.147 0.136s-0.127 0.176-0.127 7.435v7.298l0.145 0.136c0.139 0.13 0.196 0.135 1.458 0.135 1.292 0 1.316-0.002 1.449-0.144 0.135-0.144 0.136-0.149 0.136-3.169v-3.026l0.276-0.031c0.327-0.037 0.75-0.231 1.080-0.495 0.357-0.287 0.698-0.422 1.068-0.423 0.406-0.002 0.668 0.104 1.144 0.46 0.466 0.349 0.902 0.497 1.463 0.497s0.997-0.148 1.463-0.498c0.471-0.352 0.737-0.461 1.131-0.461s0.659 0.109 1.13 0.462c0.465 0.348 0.902 0.497 1.463 0.498 0.497 0.001 0.943-0.136 1.318-0.405 0.577-0.415 0.796-0.517 1.156-0.543 0.463-0.033 0.709 0.053 1.214 0.424 0.613 0.452 1.242 0.621 1.873 0.505 0.401-0.074 0.927-0.317 1.159-0.536 0.391-0.37 1.124-0.511 1.608-0.309 0.126 0.052 0.377 0.209 0.556 0.347 0.772 0.594 1.697 0.692 2.544 0.27 0.178-0.089 0.393-0.228 0.479-0.309 0.392-0.37 1.124-0.511 1.609-0.309 0.126 0.052 0.376 0.209 0.556 0.347 0.362 0.278 0.861 0.492 1.148 0.492h0.187v6.084l0.145 0.136c0.139 0.13 0.196 0.135 1.458 0.135 1.292 0 1.316-0.002 1.449-0.144l0.136-0.144v-7.29c0-7.25-0.001-7.29-0.127-7.426s-0.15-0.136-2.147-0.136h-2.019l-0.316-0.717-0.316-0.716h0.456c0.343 0 0.487-0.027 0.584-0.109 0.071-0.060 0.314-0.504 0.539-0.987l0.41-0.878-0.068-0.486c-0.071-0.506-0.225-0.966-0.449-1.34-0.39-0.649-1.098-1.25-1.74-1.478l-0.304-0.108 0.038-0.328c0.153-1.291-1.498-1.909-2.234-0.837-0.127 0.185-0.151 0.294-0.151 0.697v0.478l-0.284 0.101c-1.013 0.359-1.888 1.365-2.15 2.475-0.156 0.658-0.133 0.794 0.285 1.696 0.482 1.039 0.548 1.104 1.128 1.104 0.378 0 0.435 0.014 0.402 0.1-0.021 0.055-0.158 0.378-0.303 0.717l-0.265 0.617-4.612-0.031-0.601-1.371 0.388-0.016c0.68-0.028 0.634 0.013 1.112-0.988 0.481-1.008 0.516-1.209 0.334-1.911-0.165-0.635-0.439-1.094-0.957-1.603-0.449-0.441-0.729-0.625-1.269-0.835-0.228-0.089-0.23-0.092-0.166-0.321 0.136-0.491-0.159-1.092-0.652-1.33-0.996-0.48-2.038 0.437-1.716 1.51 0.009 0.029-0.143 0.117-0.336 0.196-1.237 0.501-2.18 1.828-2.18 3.067 0 0.278 0.066 0.468 0.432 1.23 0.477 0.996 0.432 0.956 1.11 0.985l0.386 0.016-0.599 1.371-4.61 0.031-0.265-0.617c-0.146-0.339-0.283-0.662-0.304-0.717-0.033-0.085 0.023-0.1 0.399-0.1 0.324 0 0.472-0.028 0.571-0.109 0.188-0.153 0.943-1.778 0.941-2.027-0.002-0.372-0.18-1.044-0.387-1.465-0.295-0.601-0.95-1.249-1.552-1.536-0.255-0.122-0.492-0.221-0.528-0.221-0.038 0-0.064-0.195-0.064-0.487 0-0.552-0.121-0.803-0.518-1.074-0.28-0.191-0.892-0.235-1.17-0.084zM6.902 5.237c0.116 0.116 0.129 0.407 0.023 0.513-0.185 0.185-0.613 0.005-0.613-0.257 0-0.295 0.383-0.462 0.589-0.256zM16.292 5.302c0.096 0.146 0.097 0.18 0.014 0.327-0.071 0.127-0.14 0.164-0.306 0.164s-0.235-0.037-0.306-0.164c-0.083-0.147-0.081-0.181 0.015-0.327 0.075-0.115 0.161-0.163 0.292-0.163s0.216 0.048 0.292 0.163zM25.573 5.242c0.238 0.214 0.078 0.582-0.252 0.582-0.217 0-0.321-0.103-0.321-0.32 0-0.324 0.335-0.478 0.573-0.262zM7.384 6.787c0.543 0.115 0.876 0.29 1.284 0.674 0.348 0.328 0.77 1.058 0.77 1.332v0.148h-5.573l0.043-0.203c0.072-0.337 0.329-0.825 0.592-1.122 0.668-0.757 1.751-1.068 2.884-0.828zM16.632 6.761c0.505 0.095 1.080 0.391 1.419 0.729 0.301 0.3 0.675 0.965 0.711 1.263l0.019 0.156h-5.562l0.019-0.156c0.010-0.085 0.107-0.337 0.213-0.559 0.538-1.112 1.822-1.691 3.181-1.434zM25.973 6.765c1.018 0.187 1.916 1.023 2.119 1.972l0.043 0.203h-5.572v-0.148c0-0.081 0.098-0.343 0.218-0.582 0.243-0.484 0.719-0.979 1.154-1.2 0.543-0.276 1.343-0.372 2.038-0.245zM9.187 9.872c0 0.034-0.062 0.188-0.137 0.343l-0.137 0.282h-4.473l-0.157-0.309c-0.086-0.171-0.157-0.325-0.157-0.343s1.139-0.033 2.531-0.033c1.599 0 2.531 0.022 2.531 0.060zM18.41 10.139l-0.144 0.327h-4.532l-0.289-0.654h5.111l-0.145 0.327zM27.875 9.845c0 0.018-0.071 0.172-0.157 0.342l-0.157 0.309h-4.473l-0.138-0.282c-0.076-0.155-0.138-0.309-0.138-0.343 0-0.038 0.932-0.060 2.532-0.060 1.392 0 2.531 0.015 2.531 0.033zM7.75 12.034c0.155 0.365 0.291 0.687 0.302 0.716s-0.613 0.053-1.388 0.053h-1.409l0.221-0.514c0.122-0.283 0.26-0.605 0.307-0.716l0.085-0.203 1.6 0.001 0.282 0.663zM17.083 12.039c0.161 0.368 0.293 0.691 0.292 0.716s-0.619 0.047-1.376 0.047-1.375-0.021-1.376-0.047c-0-0.026 0.131-0.348 0.292-0.716l0.293-0.67h1.581l0.293 0.67zM26.438 12.086l0.293 0.685-1.375 0.017c-0.756 0.009-1.385 0.006-1.398-0.006s0.111-0.336 0.275-0.718l0.299-0.694 1.613 0.032 0.293 0.685zM2.5 16.148v2.473l0.168 0.175c0.23 0.24 0.44 0.224 0.896-0.070 0.656-0.423 1.084-0.533 2.061-0.533s1.405 0.111 2.061 0.533c0.21 0.135 0.45 0.245 0.534 0.245s0.301-0.093 0.482-0.207c0.667-0.42 1.301-0.6 2.111-0.601 0.824-0.001 1.632 0.245 2.249 0.683 0.248 0.176 0.448 0.156 0.828-0.082 0.667-0.42 1.301-0.6 2.111-0.601 0.824-0.001 1.632 0.245 2.249 0.683 0.249 0.176 0.449 0.156 0.828-0.082 0.667-0.42 1.301-0.6 2.111-0.601 0.824-0.001 1.632 0.245 2.249 0.683 0.249 0.176 0.449 0.156 0.828-0.082 0.667-0.42 1.301-0.6 2.111-0.601 0.824-0.001 1.632 0.245 2.249 0.683 0.252 0.178 0.506 0.161 0.708-0.050l0.168-0.175v-4.947h1.625v3.055c0 2.855-0.007 3.057-0.11 3.088-0.258 0.078-0.813 0.363-1.015 0.522-0.683 0.535-1.338 0.552-2.001 0.052-0.579-0.437-0.905-0.569-1.478-0.599-0.642-0.034-1.086 0.095-1.585 0.461-0.956 0.701-1.352 0.686-2.467-0.093-0.784-0.548-1.931-0.503-2.741 0.107-0.912 0.686-1.339 0.667-2.446-0.107-0.355-0.248-0.8-0.38-1.285-0.38-0.53 0-0.938 0.131-1.372 0.44-0.602 0.428-0.808 0.516-1.217 0.516-0.4 0-0.727-0.128-1.077-0.421-0.103-0.086-0.339-0.235-0.524-0.33-0.305-0.157-0.398-0.173-0.993-0.173s-0.688 0.016-0.993 0.173c-0.185 0.095-0.421 0.244-0.524 0.33-0.68 0.57-1.473 0.57-2.153 0-0.103-0.086-0.338-0.235-0.524-0.33-0.305-0.157-0.398-0.173-0.993-0.173-0.737 0-0.962 0.080-1.625 0.58s-1.318 0.483-2.001-0.052c-0.203-0.159-0.757-0.443-1.015-0.522-0.102-0.031-0.11-0.233-0.11-3.088v-3.055h1.625v2.473zM28.625 15.738c0 1.941-0.006 2.060-0.11 2.017-0.060-0.026-0.348-0.133-0.641-0.24-0.509-0.185-0.571-0.193-1.5-0.192-0.898 0.001-1.006 0.014-1.469 0.174-0.275 0.096-0.641 0.252-0.814 0.349l-0.313 0.175-0.307-0.175c-0.169-0.096-0.548-0.254-0.843-0.35-0.487-0.16-0.618-0.175-1.442-0.175s-0.955 0.016-1.442 0.175c-0.294 0.096-0.674 0.254-0.843 0.351l-0.307 0.176-0.314-0.175c-0.172-0.096-0.538-0.253-0.813-0.349-0.464-0.161-0.57-0.174-1.469-0.174s-1.005 0.012-1.468 0.174c-0.275 0.096-0.641 0.252-0.813 0.349l-0.314 0.175-0.307-0.175c-0.169-0.096-0.548-0.254-0.843-0.35-0.487-0.16-0.618-0.175-1.442-0.175s-0.955 0.016-1.442 0.175c-0.295 0.096-0.669 0.251-0.832 0.345l-0.297 0.169-0.48-0.236c-0.772-0.379-1.383-0.503-2.319-0.47-0.757 0.027-1.267 0.144-1.958 0.45-0.103 0.046-0.11-0.073-0.11-2.015v-2.063h25.25v2.063zM1.112 20.803c0.093 0.048 0.276 0.173 0.407 0.277 0.15 0.115 0.319 0.223 0.497 0.314l0.019 0.009 0.277 0.134v5.534h-1.438v-3.177c0-1.748 0.015-3.178 0.034-3.178s0.11 0.039 0.203 0.087zM31.125 23.893v3.178h-1.438v-5.534l0.285-0.138c0.157-0.076 0.361-0.201 0.453-0.278 0.196-0.164 0.584-0.405 0.652-0.405 0.026 0 0.047 1.43 0.047 3.177z"></path>
</symbol>
<symbol id="telegram" viewBox="0 0 32 32">
<path fill="#fff" style="fill: var(--color1, #fff)" d="M27.552 4.957l-23.637 9.114c-1.614 0.648-1.605 1.547-0.296 1.949l6.069 1.894 14.043-8.861c0.664-0.403 1.27-0.186 0.771 0.256l-11.379 10.269-0.419 6.256c0.613 0 0.883-0.28 1.227-0.613l2.949-2.866 6.131 4.528c1.131 0.624 1.944 0.304 2.224-1.046l4.029-18.97c0.413-1.651-0.63-2.4-1.709-1.91z"></path>
</symbol>
<symbol id="vk" viewBox="0 0 32 32">
<path fill="#fff" style="fill: var(--color1, #fff)" d="M28.483 19.677s2.587 2.555 3.227 3.738c0.013 0.016 0.022 0.035 0.029 0.056 0.261 0.437 0.325 0.779 0.197 1.032-0.216 0.418-0.947 0.627-1.195 0.645h-4.573c-0.318 0-0.981-0.083-1.787-0.64-0.616-0.43-1.229-1.139-1.822-1.832-0.886-1.029-1.653-1.922-2.429-1.922-0.001 0-0.001 0-0.002 0-0.102 0-0.201 0.018-0.292 0.050l0.006-0.002c-0.587 0.186-1.333 1.022-1.333 3.251 0 0.698-0.55 1.094-0.936 1.094h-2.094c-0.714 0-4.429-0.25-7.723-3.723-4.037-4.253-7.662-12.784-7.696-12.859-0.229-0.552 0.245-0.853 0.757-0.853h4.618c0.619 0 0.821 0.374 0.962 0.71 0.163 0.386 0.768 1.928 1.76 3.661 1.606 2.819 2.594 3.966 3.382 3.966 0.001 0 0.002 0 0.002 0 0.155 0 0.299-0.042 0.424-0.114l-0.004 0.002c1.030-0.566 0.838-4.246 0.79-5.005 0-0.147 0-1.643-0.528-2.366-0.379-0.518-1.022-0.72-1.411-0.794 0.104-0.15 0.325-0.381 0.608-0.517 0.706-0.352 1.981-0.403 3.248-0.403h0.701c1.373 0.019 1.728 0.107 2.227 0.234 1.005 0.24 1.024 0.891 0.936 3.109-0.026 0.634-0.053 1.347-0.053 2.187 0 0.179-0.008 0.379-0.008 0.582-0.030 1.138-0.070 2.419 0.733 2.946 0.099 0.062 0.218 0.099 0.347 0.099 0 0 0 0 0 0h-0c0.278 0 1.112 0 3.373-3.88 0.992-1.714 1.76-3.734 1.813-3.886 0.045-0.085 0.179-0.323 0.342-0.419 0.104-0.057 0.228-0.090 0.36-0.090 0.006 0 0.012 0 0.019 0l-0.001-0h5.432c0.592 0 0.994 0.090 1.072 0.314 0.131 0.363-0.026 1.472-2.506 4.826-0.416 0.558-0.784 1.042-1.104 1.464-2.25 2.95-2.25 3.099 0.131 5.339z"></path>
</symbol>
</defs>
</svg>
